<svg width="280" height="234" viewBox="0 0 280 234" fill="none" xmlns="http://www.w3.org/2000/svg">
<path d="M119.895 60.5852V57.8438L125.854 48.4545H128.29V52.1761H126.876L123.389 57.7017V57.8153H132.018V60.5852H119.895ZM126.919 63V59.7472L126.99 58.5469V48.4545H130.278V63H126.919ZM139.877 63.3551C138.608 63.3551 137.514 63.0545 136.596 62.4531C135.677 61.8471 134.969 60.9782 134.472 59.8466C133.975 58.7102 133.729 57.3442 133.734 55.7486C133.738 54.1529 133.987 52.7988 134.479 51.6861C134.977 50.5687 135.682 49.7187 136.596 49.1364C137.514 48.5492 138.608 48.2557 139.877 48.2557C141.146 48.2557 142.24 48.5492 143.158 49.1364C144.082 49.7187 144.792 50.5687 145.289 51.6861C145.786 52.8035 146.032 54.1577 146.028 55.7486C146.028 57.349 145.779 58.7173 145.282 59.8537C144.785 60.9901 144.077 61.8589 143.158 62.4602C142.245 63.0568 141.151 63.3551 139.877 63.3551ZM139.877 60.4787C140.635 60.4787 141.248 60.0928 141.717 59.321C142.185 58.5445 142.417 57.3537 142.413 55.7486C142.413 54.6974 142.306 53.831 142.093 53.1491C141.88 52.4626 141.584 51.9512 141.205 51.6151C140.826 51.2789 140.384 51.1108 139.877 51.1108C139.124 51.1108 138.516 51.492 138.052 52.2543C137.588 53.0118 137.353 54.1766 137.349 55.7486C137.344 56.8139 137.446 57.697 137.654 58.3977C137.867 59.0985 138.165 59.6217 138.549 59.9673C138.933 60.3082 139.375 60.4787 139.877 60.4787ZM147.864 60.5852V57.8438L153.822 48.4545H156.259V52.1761H154.845L151.358 57.7017V57.8153H159.987V60.5852H147.864ZM154.888 63V59.7472L154.959 58.5469V48.4545H158.247V63H154.888Z" fill="#A4A0A0"/>
<path d="M280 234H0V228.516H136.64V177.945C136.631 176.734 136.08 152.603 105.159 144.925C103.161 150.942 97.3373 157.828 84 157.828C83.1787 157.828 63.7187 157.645 44.296 141.794C42.98 140.72 42.98 138.983 44.296 137.909C63.7187 122.058 83.1787 121.875 84 121.875C101.015 121.875 105.803 133.087 106.017 139.402C122.276 143.188 131.451 151.064 136.64 158.712V109.383H143.36V158.719C148.549 151.072 157.733 143.195 173.983 139.41C174.197 133.095 178.985 121.883 196 121.883C196.821 121.883 216.281 122.065 235.713 137.917C237.029 138.991 237.029 140.728 235.713 141.802C216.281 157.645 196.821 157.828 196 157.828C182.663 157.828 176.839 150.942 174.841 144.925C143.911 152.603 143.36 176.734 143.351 177.945V228.516H280V234ZM181.384 143.622C182.625 147.324 186.144 152.344 196 152.344C196.159 152.344 211.979 152.1 228.471 139.852C212.007 127.634 196.215 127.359 196 127.359C184.137 127.359 181.468 134.611 180.871 138.122C185.435 137.467 190.456 137.102 196.009 137.102V142.594C190.587 142.594 185.733 142.959 181.384 143.622ZM51.5293 139.852C68.0213 152.092 83.8413 152.344 84.0093 152.344C93.8653 152.344 97.3747 147.339 98.616 143.622C94.2667 142.959 89.4133 142.594 84 142.594V137.109C89.544 137.109 94.5747 137.475 99.1387 138.13C98.5507 134.626 95.8813 127.359 84 127.359C83.8413 127.359 68.0213 127.611 51.5293 139.852ZM140 112.117C129.565 112.117 120.801 106.168 118.543 98.2008C110.255 102.215 98.7467 101.141 91.756 95.4205C87.6027 92.0308 85.3067 87.5139 85.3067 82.715C85.3067 79.4473 86.3707 76.309 88.3587 73.5668C78.6053 71.7311 71.3067 64.5785 71.3067 56.0625C71.3067 47.5465 78.596 40.3863 88.3587 38.543C86.3707 35.8008 85.3067 32.6701 85.3067 29.4023C85.3067 24.6035 87.6027 20.0865 91.756 16.6969C98.9987 10.7859 110.077 9.85664 118.533 13.9318C120.792 5.95664 129.556 0 140 0C150.435 0 159.208 5.95664 161.467 13.9242C169.885 9.84902 180.983 10.7707 188.244 16.6893C192.397 20.0865 194.693 24.6035 194.693 29.4023C194.693 32.6701 193.629 35.8084 191.641 38.5506C201.395 40.3863 208.693 47.5389 208.693 56.0625C208.693 64.5861 201.395 71.731 191.632 73.5744C193.629 76.3166 194.693 79.4473 194.693 82.7226C194.693 87.5215 192.397 92.0385 188.244 95.4281C181.253 101.141 169.764 102.223 161.457 98.2084C159.199 106.168 150.435 112.117 140 112.117ZM124.703 93.7828C124.703 93.9047 124.693 94.0266 124.693 94.1484C124.693 101.034 131.563 106.641 140 106.641C148.437 106.641 155.307 101.034 155.307 94.1484C155.307 94.0266 155.307 93.9123 155.307 93.7904C153.608 92.0309 152.357 90.0428 151.573 87.91C144.237 89.6848 135.781 89.6848 128.436 87.91C127.652 90.0428 126.392 92.0232 124.703 93.7828ZM157.855 85.899C158.536 88.0394 159.899 89.9666 161.84 91.5434C167.636 96.2812 177.707 96.2736 183.484 91.551C186.387 89.1896 187.964 86.0514 187.964 82.715C187.964 79.3787 186.377 76.2404 183.484 73.8791C181.533 72.2871 179.172 71.1826 176.559 70.6342C172.573 77.2611 165.975 82.6465 157.855 85.899ZM103.441 70.6418C100.847 71.1978 98.4387 72.3176 96.5067 73.8867C93.6133 76.248 92.0267 79.3787 92.0267 82.715C92.0267 86.0514 93.6227 89.1896 96.5067 91.5434C102.293 96.266 112.355 96.266 118.141 91.5434C120.092 89.959 121.445 88.0318 122.136 85.8914C114.025 82.6541 107.427 77.2611 103.441 70.6418ZM140 28.3283C121.268 28.3283 106.027 40.7672 106.027 56.0549C106.027 71.3426 121.268 83.7814 140 83.7814C158.732 83.7814 173.973 71.3426 173.973 56.0549C173.973 40.7672 158.732 28.3283 140 28.3283ZM186.2 68.5394L186.667 68.5547C195.104 68.5547 201.973 62.9484 201.973 56.0625C201.973 49.1766 195.113 43.5703 186.667 43.5703L186.209 43.5855C184.063 44.9643 181.627 45.9926 179.013 46.6248C180.115 49.6107 180.693 52.7795 180.693 56.0625C180.693 59.3455 180.105 62.5143 179.013 65.5154C181.608 66.1477 184.053 67.176 186.2 68.5394ZM93.3333 43.5627C84.896 43.5627 78.0267 49.1689 78.0267 56.0549C78.0267 62.9408 84.896 68.5547 93.3333 68.5547L93.8 68.5471C95.9467 67.1836 98.392 66.1553 100.987 65.5154C99.8947 62.5143 99.3067 59.3455 99.3067 56.0625C99.3067 52.7871 99.8853 49.6184 100.977 46.6248C98.364 45.985 95.9373 44.9643 93.7907 43.5855L93.3333 43.5627ZM107.333 16.9178C103.413 16.9178 99.4933 18.1365 96.5067 20.5664C93.6133 22.9277 92.0267 26.066 92.0267 29.4023C92.0267 32.7387 93.6227 35.877 96.5067 38.2307C98.448 39.8227 100.819 40.9271 103.432 41.4908C107.408 34.8639 114.016 29.4709 122.136 26.226C121.455 24.1008 120.101 22.166 118.151 20.574C115.164 18.1365 111.244 16.9178 107.333 16.9178ZM157.855 26.2184C165.975 29.4709 172.583 34.8639 176.568 41.4832C179.172 40.9348 181.533 39.8227 183.484 38.2307C186.387 35.8693 187.964 32.7311 187.964 29.3947C187.964 26.0584 186.377 22.9201 183.484 20.5588C177.52 15.6914 167.804 15.6914 161.849 20.5588C159.889 22.1584 158.536 24.0855 157.855 26.2184ZM124.693 18.3422C126.392 20.1018 127.652 22.0822 128.427 24.215C135.763 22.4402 144.219 22.4402 151.564 24.215C152.339 22.0822 153.599 20.1018 155.288 18.3422L155.307 17.9766C155.307 11.0906 148.447 5.48437 140 5.48437C131.553 5.48437 124.693 11.083 124.693 17.9766C124.693 18.0984 124.693 18.2203 124.693 18.3422Z" fill="#A4A0A0"/>
</svg>
