<svg width="30" height="30" viewBox="0 0 30 30" fill="none" xmlns="http://www.w3.org/2000/svg">
<path d="M6.13141 9C4.94609 9.84624 3.98508 10.7511 3.24866 11.5486C1.58378 13.3517 1.58378 16.0461 3.24866 17.8491C5.40791 20.1876 9.49803 23.4489 15.512 23.4489C17.1318 23.4489 18.6119 23.2124 19.9524 22.821L17.8739 20.7425C17.129 20.875 16.3418 20.9489 15.512 20.9489C10.4707 20.9489 6.99744 18.2239 5.08539 16.1531C4.30486 15.3079 4.30486 14.0899 5.08539 13.2447C5.80896 12.461 6.75611 11.5837 7.92721 10.7958L6.13141 9Z" fill="#E6E6E6"/>
<path d="M10.6662 14.348C10.6344 14.5607 10.618 14.7784 10.618 15C10.618 17.4162 12.5767 19.375 14.993 19.375C15.2145 19.375 15.4322 19.3585 15.645 19.3267L10.6662 14.348Z" fill="#E6E6E6"/>
<path d="M19.3326 15.5589L14.4341 10.6604C14.6171 10.637 14.8036 10.625 14.993 10.625C17.4092 10.625 19.368 12.5838 19.368 15C19.368 15.1894 19.356 15.3759 19.3326 15.5589Z" fill="#E6E6E6"/>
<path d="M22.0087 18.616C23.1545 17.8377 24.0833 16.9756 24.7956 16.2042C25.5761 15.359 25.5761 14.141 24.7956 13.2957C22.8836 11.225 19.4103 8.5 14.369 8.5C13.5682 8.5 12.8071 8.56874 12.0855 8.69269L10 6.60727C11.3216 6.22825 12.778 6 14.369 6C20.383 6 24.4731 9.26131 26.6323 11.5997C28.2972 13.4027 28.2972 16.0972 26.6323 17.9002C25.9071 18.6857 24.964 19.5754 23.8032 20.4105L22.0087 18.616Z" fill="#E6E6E6"/>
<path d="M6.05358 6.9158C5.68356 6.54545 5.69881 5.96104 6.08764 5.6105C6.47645 5.25994 7.09162 5.27599 7.46163 5.64634L25.0643 23.2648C25.4344 23.6351 25.4191 24.2196 25.0302 24.5701C24.6414 24.9206 24.0263 24.9046 23.6563 24.5343L6.05358 6.9158Z" fill="#E6E6E6"/>
</svg>
