<svg width="30" height="30" viewBox="0 0 30 30" fill="none" xmlns="http://www.w3.org/2000/svg">
<path fill-rule="evenodd" clip-rule="evenodd" d="M15 6.25C8.986 6.25 4.89589 9.51131 2.73664 11.8497C1.07175 13.6528 1.07176 16.3472 2.73664 18.1502C4.89589 20.4887 8.986 23.75 15 23.75C21.014 23.75 25.1041 20.4887 27.2634 18.1502C28.9283 16.3472 28.9283 13.6528 27.2634 11.8497C25.1041 9.51131 21.014 6.25 15 6.25ZM4.57336 13.5458C6.48541 11.475 9.95864 8.75 15 8.75C20.0414 8.75 23.5146 11.475 25.4266 13.5458C26.2071 14.391 26.2071 15.609 25.4266 16.4542C23.5146 18.525 20.0414 21.25 15 21.25C9.95864 21.25 6.48541 18.525 4.57336 16.4542C3.79284 15.609 3.79284 14.391 4.57336 13.5458Z" fill="#E6E6E6"/>
<path fill-rule="evenodd" clip-rule="evenodd" d="M14.9875 19.3625C17.4038 19.3625 19.3625 17.4038 19.3625 14.9875C19.3625 12.5713 17.4038 10.6125 14.9875 10.6125C12.5713 10.6125 10.6125 12.5713 10.6125 14.9875C10.6125 17.4038 12.5713 19.3625 14.9875 19.3625ZM14.9875 16.8555C13.9559 16.8555 13.1195 16.0191 13.1195 14.9875C13.1195 13.9559 13.9559 13.1195 14.9875 13.1195C16.0191 13.1195 16.8555 13.9559 16.8555 14.9875C16.8555 16.0191 16.0191 16.8555 14.9875 16.8555Z" fill="#E6E6E6"/>
</svg>
