<svg width="99" height="27" viewBox="0 0 99 27" fill="none" xmlns="http://www.w3.org/2000/svg">
<g clip-path="url(#clip0_4_4)">
<path d="M10.4416 25.6078C10.0351 25.5496 9.65401 25.5207 9.29833 25.5207C8.96807 25.4917 8.73942 25.4771 8.61239 25.4771C8.51078 25.4481 8.45996 25.39 8.45996 25.3029C8.28212 24.3738 8.15509 23.5609 8.07888 22.8641C8.00266 22.1383 7.95184 21.4705 7.92644 20.8607C7.90104 19.9897 7.83752 19.1333 7.7359 18.2913C7.65969 17.4202 7.48186 16.2733 7.2024 14.8508C5.7797 15.1121 4.82699 15.2427 4.3443 15.2427C3.83619 15.2427 3.45511 15.141 3.20106 14.9379C2.94702 14.7055 2.81999 14.3427 2.81999 13.8491C2.81999 13.5588 2.9597 13.4136 3.23917 13.4136L4.38241 13.2829C4.56024 13.254 5.37322 13.1377 6.82132 12.9345C6.7705 12.0925 6.66888 10.365 6.51645 7.75201C6.44023 5.66159 6.32592 3.99214 6.17348 2.7437L1.40999 3.22275C1.05431 3.48405 0.774866 3.6147 0.571618 3.6147C0.266754 3.3534 0.0762158 3.01952 0 2.61304C0.609727 1.85815 2.07054 1.23395 4.38241 0.740372C6.71971 0.246791 9.24752 0 11.9659 0C15.3702 0 18.2918 0.420985 20.7307 1.26297C23.1696 2.07591 24.4906 3.33888 24.6939 5.05188C23.9064 5.05188 23.1443 4.95025 22.4075 4.74702C21.6707 4.5438 20.7435 4.23894 19.6256 3.83246C18.2028 3.28082 16.8945 2.85982 15.7005 2.56949C14.5318 2.27916 13.2107 2.13399 11.7372 2.13399C10.7972 2.13399 9.76833 2.22109 8.65049 2.39529C8.65049 5.09543 8.714 8.50697 8.84103 12.6297L10.1748 12.499C14.2396 12.1217 16.6151 11.9329 17.301 11.9329C17.6313 11.9329 17.8599 11.9618 17.9869 12.02C18.114 12.0489 18.2156 12.1071 18.2918 12.1942C18.3171 13.0652 17.5932 13.6895 16.1197 14.0668C14.6462 14.4153 12.3089 14.662 9.10779 14.8072C9.23482 16.2298 9.47616 18.0881 9.83184 20.3817C10.1621 22.5303 10.3653 24.2723 10.4416 25.6078ZM36.7909 26.1304C34.1487 26.1304 31.8495 25.6078 29.8934 24.5625C27.9625 23.4884 26.9972 21.6157 26.9972 18.9445C26.9972 17.9864 27.2512 17.0572 27.7593 16.1573C28.2673 15.2573 29.0169 14.5313 30.0077 13.9798C30.9985 13.399 32.2052 13.1087 33.6279 13.1087C34.7203 13.1087 35.6475 13.1669 36.4098 13.2829C37.172 13.399 38.0485 13.7184 39.0393 14.241C40.0301 14.7637 41.059 15.5911 42.126 16.7234C41.7194 14.7201 41.1097 12.9635 40.2968 11.4538C39.4838 9.94413 38.5692 8.78264 37.5531 7.96977C36.5623 7.12772 35.584 6.7068 34.6188 6.7068C34.1615 6.7068 33.7295 6.80849 33.3231 7.01166C32.942 7.18586 32.4719 7.44716 31.9131 7.79556C31.2778 8.26003 30.808 8.49237 30.5029 8.49237C30.376 8.49237 30.2617 8.44883 30.1601 8.36172C30.0839 8.24566 30.0458 8.11501 30.0458 7.96977C30.0458 6.8085 30.4903 5.90836 31.3796 5.26962C32.2942 4.63089 33.3993 4.34055 34.695 4.39862C36.4733 4.51475 38.0991 5.38576 39.5728 7.01166C41.0462 8.60844 42.2022 10.5974 43.0406 12.9781C43.9043 15.3588 44.3363 17.6961 44.3363 19.9897C44.3363 20.3671 44.3107 20.9043 44.2601 21.6011L43.0406 21.514C42.0752 19.2783 40.8304 17.6961 39.306 16.767C37.8071 15.8089 36.2955 15.3298 34.7712 15.3298C32.8149 15.3298 31.4177 15.6636 30.5793 16.3315C29.7409 16.9993 29.3217 17.9718 29.3217 19.2494C29.3217 20.5849 29.906 21.6592 31.0745 22.4721C32.2433 23.285 33.7423 23.6915 35.5715 23.6915C36.5876 23.6915 37.4006 23.6334 38.0104 23.5173C38.6201 23.3721 39.2552 23.1835 39.9158 22.9512C40.4493 22.748 40.9192 22.6028 41.3258 22.5157C41.7322 22.4286 42.2529 22.385 42.8882 22.385C43.5995 22.385 44.044 22.4432 44.222 22.5592C44.4251 22.6753 44.5268 22.9366 44.5268 23.3431C44.5268 23.6334 44.0059 23.9964 42.9644 24.4319C41.9227 24.8674 40.7541 25.2594 39.4585 25.6078C38.1628 25.9562 37.2735 26.1304 36.7909 26.1304ZM51.197 26.3046C50.8415 26.4206 50.6382 26.4788 50.5873 26.4788C50.3842 26.4788 50.1681 26.3627 49.9395 26.1304C49.1011 24.7078 48.4914 22.2254 48.1103 18.6832C47.7547 15.141 47.5768 12.0925 47.5768 9.53758C47.5768 9.13104 47.831 8.92787 48.3389 8.92787C49.1011 8.92787 49.4822 9.40694 49.4822 10.3651C49.4822 10.6264 49.4696 10.8441 49.4441 11.0183C49.6727 10.4086 50.1047 9.7843 50.7397 9.14563C51.375 8.50696 52.1116 7.96976 52.95 7.53426C53.7884 7.09875 54.6395 6.881 55.5032 6.881C58.2217 6.881 60.2033 8.26003 61.4481 11.0183C62.693 13.7474 63.3154 17.1444 63.3154 21.2092C63.3154 22.6028 63.1885 23.7205 62.9343 24.5625C62.6803 25.3754 62.3373 25.782 61.9054 25.782C61.4481 25.782 61.2194 25.6223 61.2194 25.3029C61.3974 23.764 61.4862 22.2544 61.4862 20.7736C61.4862 17.0283 60.9145 14.1975 59.7713 12.2813C58.6281 10.3361 57.1165 9.36339 55.2365 9.36339C54.3219 9.36339 53.4328 9.62469 52.5689 10.1473C51.7306 10.6699 51.0446 11.3957 50.5111 12.3248C50.0031 13.254 49.7489 14.3136 49.7489 15.504C49.7489 16.8395 49.8126 18.001 49.9395 18.9881C50.0666 19.9751 50.2699 21.1656 50.5492 22.5592C50.8541 23.9239 51.0701 25.1722 51.197 26.3046ZM75.3637 26.1304C73.7379 26.1304 72.2389 25.7674 70.867 25.0416C69.4951 24.3158 68.4028 23.285 67.5897 21.9495C66.7767 20.614 66.3703 19.0752 66.3703 17.3331C66.3703 15.388 66.6879 13.5732 67.323 11.8893C67.958 10.1762 68.8854 8.81182 70.1049 7.79556C71.3497 6.75035 72.7977 6.22774 74.4492 6.22774C76.1768 6.22774 77.485 6.86641 78.3743 8.14397C79.2635 9.39234 79.6827 10.9747 79.6318 12.891C79.6318 14.604 79.0349 15.9106 77.8408 16.8105C76.6722 17.7105 75.1732 18.1606 73.344 18.1606C73.0645 18.1606 72.6453 18.1316 72.0865 18.0735C71.1719 17.9574 70.524 17.7976 70.143 17.5945C69.7619 17.3913 69.5713 16.9847 69.5713 16.375C69.5713 16.1719 69.6222 16.0266 69.7238 15.9395C69.8253 15.8235 70.0286 15.7653 70.3335 15.7653C70.6637 15.7653 71.2481 15.8524 72.0865 16.0266C72.8995 16.2008 73.6235 16.2879 74.2586 16.2879C76.596 16.2879 77.7646 15.1266 77.7646 12.8039C77.7646 11.4103 77.5359 10.3069 77.0786 9.49403C76.6466 8.68116 75.8719 8.27461 74.754 8.27461C73.5346 8.27461 72.4422 8.65199 71.4767 9.40694C70.5113 10.1327 69.7619 11.0908 69.2284 12.2813C68.7202 13.4717 68.4662 14.7347 68.4662 16.0702C68.4662 18.3638 69.0251 20.251 70.143 21.7318C71.2609 23.1835 72.9883 23.9093 75.3256 23.9093C75.6052 23.9093 76.075 23.8803 76.7356 23.8222C77.0151 23.7932 77.3581 23.7061 77.7646 23.5609C78.171 23.4156 78.4633 23.3142 78.641 23.256C79.7334 22.8205 80.5337 22.6028 81.0418 22.6028C81.4229 22.6028 81.715 22.7188 81.9183 22.9512C81.2832 24.0545 80.3306 24.8674 79.0602 25.39C77.8154 25.8836 76.5832 26.1304 75.3637 26.1304ZM92.4454 26.1304C90.8194 26.1304 89.3206 25.7674 87.9487 25.0416C86.5768 24.3158 85.4843 23.285 84.6714 21.9495C83.8584 20.614 83.452 19.0752 83.452 17.3331C83.452 15.388 83.7694 13.5732 84.4047 11.8893C85.0397 10.1762 85.9671 8.81182 87.1865 7.79556C88.4313 6.75035 89.8794 6.22774 91.5308 6.22774C93.2583 6.22774 94.5667 6.86641 95.456 8.14397C96.345 9.39234 96.7642 10.9747 96.7135 12.891C96.7135 14.604 96.1164 15.9106 94.9224 16.8105C93.7537 17.7105 92.2549 18.1606 90.4257 18.1606C90.1462 18.1606 89.727 18.1316 89.1681 18.0735C88.2536 17.9574 87.6057 17.7976 87.2247 17.5945C86.8436 17.3913 86.653 16.9847 86.653 16.375C86.653 16.1719 86.7037 16.0266 86.8055 15.9395C86.907 15.8235 87.1103 15.7653 87.4152 15.7653C87.7454 15.7653 88.3298 15.8524 89.1681 16.0266C89.981 16.2008 90.705 16.2879 91.3403 16.2879C93.6775 16.2879 94.8462 15.1266 94.8462 12.8039C94.8462 11.4103 94.6176 10.3069 94.1603 9.49403C93.7283 8.68116 92.9534 8.27461 91.8357 8.27461C90.6163 8.27461 89.5237 8.65199 88.5584 9.40694C87.593 10.1327 86.8436 11.0908 86.3101 12.2813C85.8019 13.4717 85.5479 14.7347 85.5479 16.0702C85.5479 18.3638 86.1068 20.251 87.2247 21.7318C88.3424 23.1835 90.07 23.9093 92.4073 23.9093C92.6867 23.9093 93.1567 23.8803 93.8173 23.8222C94.0966 23.7932 94.4396 23.7061 94.8462 23.5609C95.2527 23.4156 95.5447 23.3142 95.7227 23.256C96.8151 22.8205 97.6153 22.6028 98.1235 22.6028C98.5046 22.6028 98.7967 22.7188 99 22.9512C98.3647 24.0545 97.4121 24.8674 96.1419 25.39C94.8969 25.8836 93.6649 26.1304 92.4454 26.1304Z" fill="#675B5B"/>
<path d="M90.3489 11.9821C90.1422 11.9949 89.8833 12.0104 90.0351 11.6814C90.1087 11.5222 90.2887 11.5673 90.1207 11.6618" fill="black"/>
<path d="M90.3489 11.9821C90.1422 11.9949 89.8833 12.0104 90.0351 11.6814C90.1087 11.5222 90.2887 11.5673 90.1207 11.6618" stroke="#675B5B" stroke-width="2" stroke-linecap="round"/>
<path d="M93.3437 11.7578C93.3032 11.7465 93.2926 11.6345 93.3725 11.6938L93.3437 11.7578Z" fill="black"/>
<path d="M93.3437 11.7578C93.3032 11.7465 93.2926 11.6345 93.3725 11.6938" stroke="#675B5B" stroke-width="2" stroke-linecap="round"/>
<path d="M75.9862 11.6661C76.0287 11.6661 76.0947 11.6326 76.1499 11.6202L75.9862 11.6661Z" fill="black"/>
<path d="M75.9862 11.6661C76.0287 11.6661 76.0947 11.6326 76.1499 11.6202" stroke="#675B5B" stroke-width="2" stroke-linecap="round"/>
<path d="M73.0085 11.8615C73.0868 11.8763 73.1583 11.8991 73.0336 11.8882C73.0226 11.8874 73.0117 11.8858 73.0013 11.8837C72.7749 11.8386 72.6987 11.5488 72.9746 11.7554C73.0117 11.7833 73.0188 11.8214 73.0085 11.8615Z" fill="#675B5B"/>
<path d="M72.9178 11.8499C72.9873 11.8499 73.2127 11.9037 73.0336 11.8882C72.7829 11.8667 72.6857 11.5392 72.9746 11.7554C73.1501 11.8869 72.6539 12.2486 72.8359 11.9418" fill="black"/>
<path d="M72.9178 11.8499C72.9873 11.8499 73.2127 11.9037 73.0336 11.8882C72.7829 11.8667 72.6857 11.5392 72.9746 11.7554C73.1501 11.8869 72.6539 12.2486 72.8359 11.9418" stroke="#675B5B" stroke-width="2" stroke-linecap="round"/>
<path d="M33.3248 18.8463C33.3248 19.004 33.0804 19.4874 33.1762 19.4493C33.3418 19.3837 33.6977 19.5978 33.3991 19.5978" fill="black"/>
<path d="M33.3248 18.8463C33.3248 19.004 33.0804 19.4874 33.1762 19.4493C33.3418 19.3837 33.6977 19.5978 33.3991 19.5978" stroke="#675B5B" stroke-width="2" stroke-linecap="round"/>
<path d="M38.3036 19.4308C38.388 19.419 38.4204 19.3354 38.4522 19.2637L38.3036 19.4308Z" fill="black"/>
<path d="M38.3036 19.4308C38.388 19.419 38.4204 19.3354 38.4522 19.2637" stroke="#675B5B" stroke-width="2" stroke-linecap="round"/>
</g>
<defs>
<clipPath id="clip0_4_4">
<rect width="99" height="27" fill="white"/>
</clipPath>
</defs>
</svg>
