<svg width="30" height="30" viewBox="0 0 30 30" fill="none" xmlns="http://www.w3.org/2000/svg">
<circle cx="15" cy="15" r="14" fill="white" stroke="#A4A0A0" stroke-width="2"/>
<path d="M25 22.0667V23C25 24.1 24.1 25 23 25H7C5.9 25 5 24.1 5 23V22.0667C5 19.6333 7.83333 18.1667 10.5 17C10.6 16.9667 10.6667 16.9333 10.7667 16.8667C10.9667 16.7667 11.2 16.7667 11.4 16.9C12.4667 17.6 13.7 18 15 18C16.3 18 17.5333 17.6 18.6 16.9333C18.8 16.8 19.0333 16.8 19.2333 16.9C19.3333 16.9333 19.4 16.9667 19.5 17.0333C22.1667 18.1667 25 19.6333 25 22.0667Z" fill="#A4A0A0"/>
<path d="M15 16C17.743 16 19.9667 13.5376 19.9667 10.5C19.9667 7.46243 17.743 5 15 5C12.257 5 10.0333 7.46243 10.0333 10.5C10.0333 13.5376 12.257 16 15 16Z" fill="#A4A0A0"/>
<path d="M12.5671 24.9146C11.0907 24.9146 9.61435 24.9146 8.13797 24.9146C7.92637 24.9146 8.19099 24.9045 8.23171 24.9193C8.29892 24.9438 7.65833 25.2288 7.58961 25.2427C7.44045 25.273 6.98389 25.3032 7.13498 25.2849C7.91973 25.1898 8.70775 25.3538 9.47608 25.4935C9.57143 25.5108 9.72657 25.518 9.82526 25.5567C9.85316 25.5677 9.85689 25.6174 9.88619 25.5849C10.3805 25.0356 11.2586 25.0525 11.9391 25.0576C12.6058 25.0626 13.2735 25.1155 13.9357 25.1912C14.0141 25.2001 14.4866 25.2171 14.5918 25.3224C14.711 25.4416 14.456 25.8332 14.3481 25.8989C14.113 26.042 14.1177 25.5884 14.3012 25.4677C14.5733 25.2887 14.9471 25.2307 15.2621 25.1958C15.976 25.1167 16.7106 25.1769 17.418 25.2849C17.5698 25.308 18.2565 25.3733 17.868 25.6552C17.6572 25.808 17.0359 25.9489 16.7853 25.8286C16.6562 25.7666 16.9116 25.5718 16.9259 25.5614C17.4069 25.2123 18.0538 25.0551 18.6273 24.9521C19.2342 24.8431 19.8558 24.8077 20.4716 24.8256C20.7901 24.8348 21.4232 24.7971 21.6152 25.1466C21.7363 25.3673 21.6449 25.6505 21.3668 25.6505C21.0214 25.6505 19.8648 25.3581 19.9208 24.8537C19.9693 24.4173 20.6676 24.4408 20.9426 24.5889C21.048 24.6457 21.3201 24.9677 21.1957 25.1068C21.0815 25.2344 20.9554 24.4645 20.9238 24.8349C20.9095 25.0036 20.8516 25.5166 21.1113 25.538C21.5698 25.5757 22.0725 25.2881 22.4236 25.0248C22.4408 25.0119 22.8473 24.655 22.8712 24.7459C22.9954 25.2176 22.0341 25.7083 21.744 25.8614C21.3943 26.046 20.8975 26.281 20.4856 26.2574C20.1809 26.24 20.2847 25.6655 20.2958 25.4771C20.3071 25.2856 20.3921 25.109 20.1364 25.224C19.2686 25.6142 18.4552 25.9607 17.5047 26.1074C17.1695 26.1592 16.5553 26.2977 16.2885 25.9879C16.0971 25.7656 16.599 25.8583 16.6658 25.8754C16.8857 25.9318 17.3901 26.0884 17.1204 26.391C16.7279 26.8314 15.8357 26.8555 15.3042 26.8175C14.0811 26.7301 13.0793 25.9919 12.2015 25.1912C11.754 24.783 11.3372 24.3369 10.9525 23.8694C10.8369 23.7291 10.5496 23.3353 10.7275 23.3726C11.3814 23.5097 12.0532 24.1264 12.3304 24.7154C12.3607 24.7797 12.7034 25.6926 12.4031 25.6458C12.2245 25.618 12.0342 25.4728 11.8922 25.3786C11.4981 25.1171 11.1245 24.8263 10.7251 24.5725C10.5552 24.4645 9.89653 23.9311 9.84401 24.3569C9.83054 24.466 9.90672 25.0639 9.79714 25.1255C9.56336 25.257 9.16195 25.0388 8.9699 24.9193C8.91079 24.8825 8.73113 24.7096 8.67697 24.7928C8.50911 25.0505 8.32747 25.2025 8.04189 25.3294C7.8486 25.4153 7.69499 25.4426 7.50524 25.3271C7.38877 25.2562 6.96932 24.8709 7.27558 25.2568C7.66794 25.7511 8.30497 26.079 8.87147 26.3324C9.10133 26.4352 9.24432 26.449 9.47843 26.3676C9.76607 26.2675 10.2339 26.5532 10.5049 26.623C10.9647 26.7415 11.4167 26.7985 11.8805 26.8948C12.7591 27.0774 13.6622 27.1597 14.559 27.1503C14.8024 27.1477 15.003 27.1002 15.2339 27.0331C15.486 26.9598 15.7452 26.997 16.0026 26.9792C16.1568 26.9686 16.3181 26.9279 16.4666 26.8878C16.8253 26.7911 17.1902 26.8128 17.5586 26.8128C17.6869 26.8128 19.1475 26.884 19.1475 26.6863" stroke="#A4A0A0" stroke-width="3" stroke-linecap="round"/>
</svg>
