<svg width="30" height="30" viewBox="0 0 30 30" fill="none" xmlns="http://www.w3.org/2000/svg">
<path fill-rule="evenodd" clip-rule="evenodd" d="M0 15C0 6.71574 6.71572 0 15 0C23.2842 0 30 6.71574 30 15C30 23.2841 23.2842 30 15 30C6.71572 30 0 23.2841 0 15ZM15 2.15164C7.90404 2.15164 2.15164 7.90406 2.15164 15C2.15164 18.3341 3.42163 21.3717 5.50426 23.6551C7.50522 20.5293 11.01 18.4542 15.0008 18.4542C18.9912 18.4542 22.4955 20.5288 24.4968 23.654C26.5787 21.3708 27.8484 18.3336 27.8484 15C27.8484 7.90406 22.0958 2.15164 15 2.15164ZM22.8862 25.1441C21.3055 22.428 18.3653 20.6059 15.0008 20.6059C11.636 20.6059 8.69542 22.4285 7.115 25.145C9.29172 26.8393 12.028 27.8484 15 27.8484C17.9725 27.8484 20.7092 26.8389 22.8862 25.1441ZM9.67781 12.7464C9.67781 9.80689 12.0608 7.42392 15.0003 7.42392C17.9398 7.42392 20.3228 9.80689 20.3228 12.7464C20.3228 15.686 17.9398 18.0689 15.0003 18.0689C12.0608 18.0689 9.67781 15.686 9.67781 12.7464ZM15.0003 9.57557C13.2491 9.57557 11.8295 10.9952 11.8295 12.7464C11.8295 14.4976 13.2491 15.9173 15.0003 15.9173C16.7515 15.9173 18.1711 14.4976 18.1711 12.7464C18.1711 10.9952 16.7515 9.57557 15.0003 9.57557Z" fill="#A4A0A0"/>
<path d="M16.1954 13.8059C16.166 13.9233 15.6249 13.8595 15.5743 13.8558C14.8803 13.8058 14.2506 13.5866 13.9504 12.9065C13.7158 12.375 13.6849 11.7286 13.8719 11.179C13.8856 11.1386 14.3938 10.2922 14.4037 10.558C14.4202 11.0045 14.2675 11.4824 14.2323 11.9285C14.1826 12.5599 14.2714 13.2921 14.0039 13.8844C13.8486 14.2284 13.476 14.2218 13.2044 13.9986C12.8236 13.6855 12.6431 13.1025 12.5798 12.6316C12.5249 12.2226 12.7334 11.3468 13.2401 11.8714C13.4693 12.1087 14.3278 13.5766 13.6756 13.7773C13.4562 13.8448 13.1336 13.7483 12.9403 13.6488C12.5336 13.4394 12.6572 13.0159 12.8297 12.6745C13.1131 12.1136 13.6103 11.7582 14.2538 11.7929C14.666 11.8151 15.12 12.0654 15.1353 12.5246C15.1562 13.1512 14.4152 13.9913 13.8612 14.227C13.7244 14.2852 13.7117 14.1696 13.7184 14.0486C13.7553 13.3835 14.1481 12.8111 14.6 12.3497C14.7099 12.2374 16.0256 11.0493 16.1168 11.6787C16.1745 12.0767 16.1828 12.8185 15.8099 13.0849C15.6613 13.191 15.6498 12.9833 15.66 12.885C15.716 12.3457 16.0038 11.8421 16.281 11.3896C16.35 11.277 16.4839 11.0728 16.5558 10.947C16.5915 10.8846 16.6129 10.6864 16.6451 10.7507C16.7363 10.9332 16.6277 11.433 16.6022 11.618C16.5339 12.1147 16.2551 13.1601 15.5672 13.0849C15.0276 13.0259 15.4045 11.7872 15.4244 11.4288" stroke="#A4A0A0" stroke-width="3" stroke-linecap="round"/>
<path d="M15.4244 11.3004C15.5858 11.3972 15.6304 11.7167 15.7385 11.8714C15.834 12.0081 15.9399 12.135 16.0204 12.2819C16.0627 12.359 16.1239 12.6125 16.1239 12.5246C16.1239 11.9644 15.8993 11.3723 15.8563 10.8078C15.8496 10.7205 15.8038 9.32641 15.9883 9.97978C16.0985 10.3701 15.9339 11.6732 16.3702 11.8786C16.8764 12.1168 16.8378 12.299 16.8378 12.8137C16.8378 13.3002 16.6373 13.4138 16.231 13.6738C15.9524 13.8521 15.9769 13.9427 15.8884 14.2413C15.8264 14.4506 16.0077 14.9849 15.8348 15.1193C15.6229 15.2841 15.0851 14.9378 14.8462 14.898" stroke="#A4A0A0" stroke-width="3" stroke-linecap="round"/>
<path d="M17.5444 14.8338C17.5444 14.534 17.5444 14.2342 17.5444 13.9344C17.5444 13.6886 17.4356 14.428 17.291 14.6268C17.0916 14.901 17.2887 14.5645 17.4052 14.4626C17.5299 14.3535 17.2495 14.6509 17.1589 14.7053" stroke="#A4A0A0" stroke-width="3" stroke-linecap="round"/>
<path d="M13.0474 21.1939C12.8387 21.2319 12.6905 21.4378 12.5192 21.5473C12.2553 21.7159 11.861 21.9767 11.5377 21.9613C10.8433 21.9282 10.1563 21.8507 9.47827 22.0541C9.21036 22.1345 9.26692 22.3642 9.25342 22.6073C9.20885 23.4094 8.38865 23.7865 8.48606 24.6631C8.50389 24.8236 8.93222 25.0727 9.06068 25.145C9.42021 25.3472 9.75937 25.5337 10.16 25.6589C10.6121 25.8002 11.1115 25.8117 11.5733 25.9195C12.1035 26.0432 12.6358 25.9871 13.1723 26.0765C14.0024 26.2149 14.8178 26.205 15.66 26.205C15.7173 26.205 16.4051 26.1836 16.2667 26.2835C15.4777 26.8534 14.2307 26.7541 13.3044 26.9759C13.0657 27.0331 12.7938 27.0487 12.5656 27.1365C12.31 27.2348 12.4495 27.2072 12.7119 27.2686C13.6926 27.4981 14.6845 27.4044 15.6778 27.3007C16.3699 27.2285 17.0798 27.2994 17.7658 27.1972C18.196 27.1331 18.618 27.0019 19.0542 26.9795C19.4549 26.9589 19.8505 27.0045 20.2392 26.8796C20.6021 26.7629 21.0033 26.7658 21.3028 26.5262C21.615 26.2764 22.1001 25.8737 21.8203 25.3841C21.7278 25.2223 21.6868 24.8911 21.4848 24.8237C20.8592 24.6152 19.939 25.1224 19.3826 25.3341C18.714 25.5886 18.0372 25.8958 17.3517 26.1015C17.1128 26.1732 16.3726 26.2929 16.6165 26.2407C17.5774 26.0348 18.5971 25.4889 19.4218 24.9772C19.6926 24.8092 20.3804 24.3799 19.6717 24.5489C18.8329 24.749 17.9782 24.9264 17.1305 25.0843C16.8158 25.1429 16.7543 25.0952 16.9591 24.8202C17.1881 24.5127 17.4339 24.2397 17.7515 24.0207C17.9668 23.8722 18.6757 23.6795 18.4225 23.6138C18.1318 23.5384 17.6168 23.8862 17.3803 24.0064C16.9567 24.2218 16.5526 24.3784 16.0883 24.4847C15.9401 24.5186 14.5003 24.9311 14.5821 24.5632C14.7195 23.9449 15.1742 23.3944 15.66 23.0142C16.2601 22.5445 15.2795 23.075 15.0604 23.1463C14.3543 23.3759 13.4498 23.6352 12.7048 23.6352C12.4862 23.6352 13.06 23.3735 13.2615 23.289C13.3293 23.2606 13.5079 23.1488 13.2901 23.2498C12.8894 23.4354 12.5175 23.6704 12.1087 23.8422C11.8468 23.9523 11.2859 24.3651 11.2521 23.8922C11.23 23.5827 11.2774 23.5417 11.5341 23.3568C12.4708 22.6824 13.5006 22.202 14.5785 21.7936C14.8528 21.6896 15.1706 21.5358 15.4744 21.5937C15.6849 21.6338 15.7828 21.6056 15.9883 21.5294C16.498 21.3407 16.7643 21.1122 17.3303 21.4152C18.0002 21.7739 18.6496 22.1064 19.3148 22.4646C19.6277 22.633 19.9627 22.8425 20.307 22.9285" stroke="#A4A0A0" stroke-width="3" stroke-linecap="round"/>
</svg>
