<svg width="19" height="15" viewBox="0 0 19 15" fill="none" xmlns="http://www.w3.org/2000/svg">
<path d="M7.12659 4.375C7.13617 3.01561 7.21253 2.27941 7.82083 1.79917C8.51648 1.25 9.63605 1.25 11.8752 1.25H12.6669C14.906 1.25 16.0257 1.25 16.7212 1.79917C17.4169 2.34835 17.4169 3.23223 17.4169 5V10C17.4169 11.7677 17.4169 12.6516 16.7212 13.2008C16.0257 13.75 14.906 13.75 12.6669 13.75H11.8752C9.63605 13.75 8.51648 13.75 7.82083 13.2008C7.21253 12.7206 7.13617 11.9844 7.12659 10.625" stroke="#A4A0A0" stroke-linecap="round"/>
<path d="M11.875 7.5H1.58337M1.58337 7.5L4.35421 5.625M1.58337 7.5L4.35421 9.375" stroke="#A4A0A0" stroke-linecap="round" stroke-linejoin="round"/>
</svg>
