<svg width="17" height="17" viewBox="0 0 17 17" fill="none" xmlns="http://www.w3.org/2000/svg">
<path d="M11.4167 5.58333H11.425M7.25 4.75H7.25833M4.75 8.08333H4.75833M8.5 16C4.35787 16 1 12.6422 1 8.5C1 4.35787 4.35787 1 8.5 1C12.6422 1 16 4.35787 16 8.5C16 9.88075 14.8807 11 13.5 11H13C12.6903 11 12.5355 11 12.4059 11.0205C11.6927 11.1335 11.1335 11.6927 11.0205 12.4059C11 12.5355 11 12.6903 11 13V13.5C11 14.8807 9.88075 16 8.5 16ZM11.8333 5.58333C11.8333 5.81345 11.6467 6 11.4167 6C11.1866 6 11 5.81345 11 5.58333C11 5.35322 11.1866 5.16667 11.4167 5.16667C11.6467 5.16667 11.8333 5.35322 11.8333 5.58333ZM7.66667 4.75C7.66667 4.98012 7.48008 5.16667 7.25 5.16667C7.01992 5.16667 6.83333 4.98012 6.83333 4.75C6.83333 4.51988 7.01992 4.33333 7.25 4.33333C7.48008 4.33333 7.66667 4.51988 7.66667 4.75ZM5.16667 8.08333C5.16667 8.31342 4.98012 8.5 4.75 8.5C4.51988 8.5 4.33333 8.31342 4.33333 8.08333C4.33333 7.85325 4.51988 7.66667 4.75 7.66667C4.98012 7.66667 5.16667 7.85325 5.16667 8.08333Z" stroke="#A4A0A0" stroke-linecap="round" stroke-linejoin="round"/>
</svg>
