<svg width="15" height="15" viewBox="0 0 15 15" fill="none" xmlns="http://www.w3.org/2000/svg">
<path d="M9.11817 7.69051C9.0321 7.88588 8.92031 8.04348 8.90152 8.20369C8.8293 8.83279 8.61958 9.45863 8.80259 10.0962C8.86393 10.3124 8.76005 10.4023 8.45733 10.4869C8.32772 10.5239 8.19238 10.5514 8.05371 10.569C7.10583 10.6966 6.12575 10.6765 5.19176 10.5104C4.92426 10.4494 4.66594 10.3723 4.42013 10.2798C4.10752 10.1783 3.9898 10.0076 3.98782 9.77839C3.98782 8.90182 3.93539 8.0259 3.9621 7.14998C3.97496 6.72407 4.10059 6.29881 4.20447 5.87615C4.29077 5.57937 4.47666 5.29903 4.74856 5.05558C5.15911 4.96571 5.5845 4.99567 6.00494 4.99958C6.79963 5.00944 7.59231 4.94364 8.35841 4.80421C8.71949 4.73908 9.04001 4.62446 9.24875 4.40304C9.34556 4.31072 9.40137 4.20246 9.40994 4.09042C9.4185 3.97838 9.37947 3.86698 9.29723 3.76873C8.82435 3.16307 8.11208 2.92602 7.12281 3.11228C5.69134 3.38124 4.59424 3.92633 3.9898 4.8524C3.70093 5.29524 3.49516 5.35841 2.82345 5.23858C2.65706 5.21494 2.49723 5.17452 2.34959 5.11876C1.63929 4.81267 0.932953 4.50268 0.236507 4.18292C0.00996481 4.07937 -0.0394987 3.92894 0.0277716 3.73877C0.138018 3.42938 0.347106 3.139 0.641119 2.88695C1.60352 2.05455 2.75934 1.3273 4.06597 0.731988C4.80495 0.390737 5.65968 0.260488 6.51837 0.13545C7.58084 -0.0195457 8.63343 -0.0566665 9.71668 0.10419C10.7755 0.251883 11.7369 0.615042 12.4649 1.14227C12.9239 1.4718 13.3552 1.81891 13.7737 2.17188C14.3248 2.6474 14.7004 3.20077 14.8708 3.78827C15.3308 5.22882 14.5384 6.33332 12.8813 7.23985C12.2779 7.56938 11.5805 7.67618 10.8296 7.68856C10.2944 7.69767 9.75723 7.69051 9.11817 7.69051ZM7.86872 9.98288C7.89246 9.86566 7.9261 9.73997 7.94193 9.61298C7.99139 9.22223 8.02008 8.83149 8.08537 8.44074C8.14077 8.10731 8.2397 7.77713 8.31092 7.44499C8.35346 7.24962 8.53549 7.14933 8.80556 7.11937C8.97213 7.09848 9.14152 7.08888 9.31107 7.09072C9.82154 7.09853 10.331 7.1096 10.8395 7.12979C11.1781 7.15206 11.5196 7.11452 11.8288 7.02103C12.8616 6.67848 13.6441 6.17442 13.9399 5.42679C14.1931 4.78858 14.204 4.13733 13.8152 3.50302C13.6019 3.13715 13.3057 2.79462 12.9367 2.48709C12.5598 2.18361 12.2057 1.8671 11.807 1.57535C11.1877 1.12599 10.4537 0.789297 9.53168 0.641465C7.87268 0.371851 6.28787 0.552245 4.75747 1.02895C4.60758 1.08183 4.46463 1.14282 4.3301 1.2113C3.18453 1.74141 2.21406 2.39331 1.3346 3.10381C1.10805 3.28681 0.857769 3.47632 0.846887 3.73161C1.50894 4.18205 2.30831 4.53516 3.19244 4.76774L3.61486 4.3021C3.95121 3.93219 4.30735 3.5701 4.85343 3.31937C5.65276 2.95207 6.53519 2.67725 7.49181 2.58217C8.82534 2.45192 9.85023 2.89541 10.2529 3.85795C10.3313 4.05926 10.3048 4.27208 10.1777 4.4623C9.9264 4.86217 9.52179 5.1448 8.87481 5.28091C8.17422 5.43264 7.44087 5.50852 6.70336 5.50559C6.2572 5.50559 5.80609 5.47433 5.38862 5.5336C5.03446 5.85922 4.99291 6.22131 4.96521 6.57558C4.89399 7.4476 4.84749 8.32026 4.80001 9.19293C4.80399 9.33104 4.81984 9.46888 4.84749 9.60581C5.88128 10.0877 6.69743 10.1887 7.86872 9.98288Z" fill="#A4A0A0"/>
<path d="M6.43019 14.9989C5.85971 15.0129 5.29699 14.9084 4.82183 14.7001C4.34667 14.4918 3.98318 14.1903 3.7829 13.8384C3.64909 13.6317 3.59603 13.4062 3.62857 13.1826C3.74828 12.5749 4.09551 12.0474 4.79294 11.6111C5.43597 11.208 6.12549 11.1083 6.96934 11.2536C7.52432 11.3493 8.06347 11.4379 8.49479 11.7062C9.13287 12.1021 9.47713 12.5658 9.31588 13.1565C9.29115 13.2483 9.27829 13.3415 9.25455 13.4333C8.99239 14.4492 7.99719 15.0002 6.43019 14.9989ZM6.60726 14.4577C6.80633 14.4391 7.00282 14.4102 7.19489 14.3711C7.96157 14.1907 8.64021 13.4691 8.54722 12.9429C8.52108 12.8528 8.47753 12.7652 8.41763 12.6824C8.02192 12.0201 7.17115 11.8097 6.19573 11.7485C5.99965 11.738 5.8038 11.7705 5.63877 11.841C5.04521 12.121 4.61191 12.5033 4.4932 12.9735C4.29732 13.7524 5.25691 14.4746 6.60726 14.4577Z" fill="#A4A0A0"/>
<path d="M7.86876 9.983C6.69746 10.1888 5.88131 10.0878 4.84753 9.60593C4.82138 9.46807 4.80718 9.32935 4.80499 9.19044C4.85247 8.31777 4.89897 7.44511 4.9702 6.57309C4.99988 6.22142 5.03945 5.86259 5.39361 5.53111C5.81108 5.47184 6.26218 5.5018 6.70834 5.5031C7.44586 5.50603 8.1792 5.43015 8.87979 5.27842C9.52677 5.13906 9.93138 4.85968 10.1827 4.45981C10.3098 4.26959 10.3363 4.05677 10.2578 3.85546C9.85026 2.89553 8.82538 2.44943 7.49185 2.58228C6.52929 2.67736 5.65279 2.95219 4.85346 3.32144C4.3064 3.57217 3.95125 3.93426 3.6149 4.30416L3.19248 4.7698C2.30808 4.53666 1.50869 4.18287 0.846924 3.73172C0.857806 3.47644 1.10809 3.28692 1.33463 3.10393C2.21409 2.39342 3.18457 1.74153 4.33014 1.21142C4.46467 1.14294 4.60762 1.08195 4.75751 1.02907C6.2879 0.552359 7.87271 0.371965 9.54656 0.642882C10.4636 0.790714 11.1976 1.12741 11.8219 1.57676C12.2176 1.86591 12.5747 2.18242 12.9516 2.4885C13.3206 2.79604 13.6168 3.13856 13.8301 3.50444C14.2189 4.13875 14.208 4.78999 13.9547 5.42821C13.658 6.17388 12.8764 6.6799 11.8436 7.02245C11.5344 7.11594 11.193 7.15348 10.8544 7.13121C10.3459 7.11102 9.83641 7.09995 9.32595 7.09213C9.1564 7.09029 8.98701 7.09989 8.82043 7.12079C8.54542 7.15335 8.36339 7.25104 8.3258 7.44641C8.25457 7.77854 8.15564 8.10872 8.10025 8.44216C8.03495 8.8329 8.00132 9.22365 7.9568 9.61439C7.92613 9.74008 7.8925 9.86577 7.86876 9.983Z" fill="white"/>
<path d="M6.60748 14.4577C5.25712 14.4759 4.29753 13.7537 4.49341 12.9748C4.61212 12.5039 5.04542 12.121 5.63898 11.841C5.80341 11.7694 5.99931 11.7357 6.19594 11.7452C7.17136 11.8065 8.01916 12.0168 8.41784 12.6791C8.47774 12.762 8.52129 12.8495 8.54743 12.9396C8.64042 13.4658 7.96179 14.1874 7.1951 14.3678C7.00318 14.408 6.80667 14.4381 6.60748 14.4577Z" fill="white"/>
</svg>
