<svg width="19" height="15" viewBox="0 0 19 15" fill="none" xmlns="http://www.w3.org/2000/svg">
<path fill-rule="evenodd" clip-rule="evenodd" d="M17.5399 10.1047L16.4727 11.5174L14.0501 10.8909L13.803 11.0647C13.0979 11.5615 12.2882 11.9215 11.3964 12.1332L11.0729 12.2109L10.574 14.1176H8.42596L7.92711 12.21L7.60364 12.1324C6.71185 11.9206 5.90204 11.5606 5.19704 11.0638L4.94989 10.89L2.52734 11.5165L1.46014 10.1038L3.37357 8.81912L3.29841 8.56148C3.19363 8.20412 3.14123 7.84677 3.14123 7.5C3.14123 7.15324 3.19362 6.79589 3.29841 6.43854L3.37358 6.18089L1.46014 4.89618L2.52734 3.48354L4.94989 4.10912L5.19704 3.93529C5.90204 3.43854 6.71185 3.07854 7.60364 2.86589L7.92711 2.78912L8.42596 0.882359H10.574L11.0729 2.79001L11.3964 2.86677C12.2882 3.07942 13.0979 3.43854 13.803 3.93619L14.0501 4.11001L16.4727 3.48354L17.5399 4.89618L15.6264 6.18089L15.7016 6.43854C15.8064 6.79589 15.8588 7.15324 15.8588 7.5C15.8588 7.84677 15.8064 8.20412 15.7016 8.56148L15.6264 8.81912L17.5399 10.1047ZM16.9977 7.5C16.9977 7.17354 16.959 6.84 16.8804 6.5056L19 5.08324L16.9886 2.4203L14.3143 3.11119C13.6389 2.67707 12.869 2.33472 12.0569 2.10795L11.5057 0H7.4943L6.94305 2.10706C6.12187 2.33471 5.3656 2.67176 4.68451 3.1103L2.0114 2.4203L0 5.08324L2.11844 6.5056C2.041 6.84 2.00227 7.17354 2.00227 7.5C2.00227 7.82648 2.041 8.16 2.11844 8.49353L1.00844e-05 9.91677L2.0114 12.5797L4.68566 11.8879C5.36105 12.3229 6.13099 12.6644 6.94306 12.8921L7.49431 15H11.5057L12.0569 12.8929C12.877 12.6644 13.6344 12.3282 14.3144 11.8888L16.9886 12.5806L19 9.91765L16.8804 8.49442C16.959 8.16 16.9977 7.82648 16.9977 7.5ZM9.49987 4.41169C7.30171 4.41169 5.51355 5.79698 5.51355 7.49992C5.51355 9.20285 7.30171 10.5882 9.49988 10.5882C11.6981 10.5882 13.4862 9.20285 13.4862 7.49992C13.4862 5.79698 11.6981 4.41169 9.49987 4.41169ZM9.49988 9.7058C7.9304 9.7058 6.6525 8.7158 6.6525 7.49992C6.6525 6.28404 7.9304 5.29404 9.49988 5.29404C11.0694 5.29404 12.3473 6.28404 12.3473 7.49992C12.3473 8.7158 11.0694 9.7058 9.49989 9.7058" fill="#A4A0A0"/>
</svg>
