<svg width="30" height="30" viewBox="0 0 30 30" fill="none" xmlns="http://www.w3.org/2000/svg">
<path d="M25 24.0667V25C25 26.1 24.1 27 23 27H7C5.9 27 5 26.1 5 25V24.0667C5 21.6333 7.83333 20.1667 10.5 19C10.6 18.9667 10.6667 18.9333 10.7667 18.8667C10.9667 18.7667 11.2 18.7667 11.4 18.9C12.4667 19.6 13.7 20 15 20C16.3 20 17.5333 19.6 18.6 18.9333C18.8 18.8 19.0333 18.8 19.2333 18.9C19.3333 18.9333 19.4 18.9667 19.5 19.0333C22.1667 20.1667 25 21.6333 25 24.0667Z" fill="#BCBABA"/>
<path d="M15 18C17.743 18 19.9667 15.5376 19.9667 12.5C19.9667 9.46243 17.743 7 15 7C12.257 7 10.0333 9.46243 10.0333 12.5C10.0333 15.5376 12.257 18 15 18Z" fill="#BCBABA"/>
<circle cx="15" cy="15" r="14.5" stroke="#BCBABA"/>
<path d="M12.476 26.9263C12.5017 26.9752 12.5399 27.0258 12.5896 27.0531C12.6318 27.0762 12.7304 27.1189 12.7796 27.1189C12.8267 27.1189 12.8637 27.149 12.9039 27.1691C12.9296 27.182 13.0009 27.1829 12.9269 27.1995C12.6583 27.26 12.383 27.2485 12.1131 27.2069C12.0176 27.1922 11.9271 27.1327 11.83 27.1197C11.6717 27.0986 11.5277 27.04 11.3733 27.0119C11.2864 26.9961 11.1969 26.9717 11.11 26.9527C11.0351 26.9362 10.9484 26.9299 10.8763 26.9041C10.8341 26.889 10.7916 26.9012 10.7496 26.8811C10.6829 26.8491 10.6094 26.8489 10.5389 26.8259C10.3444 26.7627 10.1825 26.7696 10.0469 26.6038C9.90888 26.4351 9.63866 26.4403 9.47084 26.3182C9.35582 26.2346 9.2245 26.2307 9.0989 26.1742C9.05486 26.1544 8.94859 26.1629 8.89976 26.1718C8.77346 26.1947 9.08218 26.5371 9.10219 26.556C9.44637 26.882 9.90904 27.0719 10.3406 27.2497C10.5617 27.3408 10.7883 27.42 11.0269 27.4456C11.1493 27.4587 11.2558 27.51 11.3684 27.555C11.5825 27.6406 11.8057 27.7165 12.0242 27.7838C12.1211 27.8136 12.2236 27.8284 12.3205 27.8611C12.4717 27.9121 12.6228 27.9901 12.7805 28.0191C13.1176 28.0812 13.4537 28.0952 13.7959 28.0784C14.1169 28.0626 14.4489 27.9773 14.7636 27.9105C14.9182 27.8777 15.0839 27.8575 15.2343 27.8118C15.4111 27.7581 15.6174 27.7854 15.8013 27.7854C16.0133 27.7854 16.2373 27.8059 16.4472 27.7764C16.6968 27.7413 16.9604 27.6896 17.2026 27.6192C17.2691 27.5999 17.3346 27.581 17.4018 27.5632C17.4776 27.5432 17.5364 27.4974 17.61 27.4736C17.7422 27.4307 17.8676 27.3875 17.9992 27.3378C18.116 27.2936 18.2358 27.2674 18.3538 27.2292C18.4144 27.2096 18.4693 27.1723 18.5308 27.1518C18.6754 27.1036 18.8067 27.026 18.9488 26.9708C19.0952 26.9138 19.225 26.848 19.3635 26.7749C19.5135 26.6958 19.6759 26.6507 19.8293 26.5791C19.912 26.5405 19.9995 26.4893 20.0852 26.4589C20.2079 26.4154 20.3256 26.3507 20.4514 26.3158C20.5434 26.2902 20.6408 26.2305 20.7336 26.2162C20.8263 26.2019 20.8902 26.1611 20.9747 26.1298C21.0057 26.1183 21.0299 26.0892 21.0652 26.0755C21.1015 26.0614 21.1509 26.0601 21.1261 26.0228" stroke="#BCBABA" stroke-width="3" stroke-linecap="round"/>
</svg>
