<svg width="16" height="18" viewBox="0 0 16 18" fill="none" xmlns="http://www.w3.org/2000/svg">
<path d="M16 15.36V16.2C16 17.19 15.28 18 14.4 18H1.6C0.72 18 0 17.19 0 16.2V15.36C0 13.17 2.26667 11.85 4.4 10.8C4.48 10.77 4.53333 10.74 4.61333 10.68C4.77333 10.59 4.96 10.59 5.12 10.71C5.97333 11.34 6.96 11.7 8 11.7C9.04 11.7 10.0267 11.34 10.88 10.74C11.04 10.62 11.2267 10.62 11.3867 10.71C11.4667 10.74 11.52 10.77 11.6 10.83C13.7333 11.85 16 13.17 16 15.36Z" fill="#A4A0A0"/>
<path d="M7.99995 9.9C10.1944 9.9 11.9733 7.68381 11.9733 4.95C11.9733 2.21619 10.1944 0 7.99995 0C5.80553 0 4.02661 2.21619 4.02661 4.95C4.02661 7.68381 5.80553 9.9 7.99995 9.9Z" fill="#A4A0A0"/>
</svg>
