<svg width="30" height="30" viewBox="0 0 30 30" fill="none" xmlns="http://www.w3.org/2000/svg">
<path d="M7.5 3C7.5 2.20435 7.81607 1.44129 8.37868 0.87868C8.94129 0.31607 9.70435 0 10.5 0H19.5C20.2956 0 21.0587 0.31607 21.6213 0.87868C22.1839 1.44129 22.5 2.20435 22.5 3V6H28.5C28.8978 6 29.2794 6.15804 29.5607 6.43934C29.842 6.72064 30 7.10218 30 7.5C30 7.89782 29.842 8.27936 29.5607 8.56066C29.2794 8.84196 28.8978 9 28.5 9H26.8965L25.596 27.213C25.5421 27.9699 25.2034 28.6782 24.6482 29.1954C24.0929 29.7125 23.3623 30 22.6035 30H7.395C6.63621 30 5.9056 29.7125 5.35033 29.1954C4.79505 28.6782 4.45637 27.9699 4.4025 27.213L3.105 9H1.5C1.10218 9 0.720644 8.84196 0.43934 8.56066C0.158035 8.27936 0 7.89782 0 7.5C0 7.10218 0.158035 6.72064 0.43934 6.43934C0.720644 6.15804 1.10218 6 1.5 6H7.5V3ZM10.5 6H19.5V3H10.5V6ZM6.111 9L7.3965 27H22.605L23.8905 9H6.111ZM12 12C12.3978 12 12.7794 12.158 13.0607 12.4393C13.342 12.7206 13.5 13.1022 13.5 13.5V22.5C13.5 22.8978 13.342 23.2794 13.0607 23.5607C12.7794 23.842 12.3978 24 12 24C11.6022 24 11.2206 23.842 10.9393 23.5607C10.658 23.2794 10.5 22.8978 10.5 22.5V13.5C10.5 13.1022 10.658 12.7206 10.9393 12.4393C11.2206 12.158 11.6022 12 12 12ZM18 12C18.3978 12 18.7794 12.158 19.0607 12.4393C19.342 12.7206 19.5 13.1022 19.5 13.5V22.5C19.5 22.8978 19.342 23.2794 19.0607 23.5607C18.7794 23.842 18.3978 24 18 24C17.6022 24 17.2206 23.842 16.9393 23.5607C16.658 23.2794 16.5 22.8978 16.5 22.5V13.5C16.5 13.1022 16.658 12.7206 16.9393 12.4393C17.2206 12.158 17.6022 12 18 12Z" fill="#A4A0A0"/>
</svg>
