<svg width="30" height="30" viewBox="0 0 30 30" fill="none" xmlns="http://www.w3.org/2000/svg">
<circle cx="15" cy="15" r="14.5" fill="white" stroke="#D6D3D3"/>
<path d="M25 22.0667V23C25 24.1 24.1 25 23 25H7C5.9 25 5 24.1 5 23V22.0667C5 19.6333 7.83333 18.1667 10.5 17C10.6 16.9667 10.6667 16.9333 10.7667 16.8667C10.9667 16.7667 11.2 16.7667 11.4 16.9C12.4667 17.6 13.7 18 15 18C16.3 18 17.5333 17.6 18.6 16.9333C18.8 16.8 19.0333 16.8 19.2333 16.9C19.3333 16.9333 19.4 16.9667 19.5 17.0333C22.1667 18.1667 25 19.6333 25 22.0667Z" fill="#D6D3D3"/>
<path d="M15 16C17.743 16 19.9667 13.5376 19.9667 10.5C19.9667 7.46243 17.743 5 15 5C12.257 5 10.0333 7.46243 10.0333 10.5C10.0333 13.5376 12.257 16 15 16Z" fill="#D6D3D3"/>
<path d="M12.5671 24.9146C11.0907 24.9146 9.61435 24.9146 8.13797 24.9146C7.92637 24.9146 8.19099 24.9045 8.23171 24.9193C8.29892 24.9438 7.65833 25.2288 7.58961 25.2427C7.44045 25.273 6.98389 25.3032 7.13498 25.2849C7.91973 25.1898 8.70775 25.3538 9.47608 25.4935C9.57143 25.5108 9.72657 25.518 9.82526 25.5567C9.85316 25.5677 9.85689 25.6174 9.88619 25.5849C10.3805 25.0356 11.2586 25.0525 11.9391 25.0576C12.6058 25.0626 13.2735 25.1155 13.9357 25.1912C14.0141 25.2001 14.4866 25.2171 14.5918 25.3224C14.711 25.4416 14.456 25.8332 14.3481 25.8989C14.113 26.042 14.1177 25.5884 14.3012 25.4677C14.5733 25.2887 14.9471 25.2307 15.2621 25.1958C15.976 25.1167 16.7106 25.1769 17.418 25.2849C17.5698 25.308 18.2565 25.3733 17.868 25.6552C17.6572 25.808 17.0359 25.9489 16.7853 25.8286C16.6562 25.7666 16.9116 25.5718 16.9259 25.5614C17.4069 25.2123 18.0538 25.0551 18.6273 24.9521C19.2342 24.8431 19.8558 24.8077 20.4716 24.8256C20.7901 24.8348 21.4232 24.7971 21.6152 25.1466C21.7363 25.3673 21.6449 25.6505 21.3668 25.6505C21.0214 25.6505 19.8648 25.3581 19.9208 24.8537C19.9693 24.4173 20.6676 24.4408 20.9426 24.5889C21.048 24.6457 21.3201 24.9677 21.1957 25.1068C21.0815 25.2344 20.9554 24.4645 20.9238 24.8349C20.9095 25.0036 20.8516 25.5166 21.1113 25.538C21.5698 25.5757 22.0725 25.2881 22.4236 25.0248C22.4408 25.0119 22.8473 24.655 22.8712 24.7459C22.9954 25.2176 22.0341 25.7083 21.744 25.8614C21.3943 26.046 20.8975 26.281 20.4856 26.2574C20.1809 26.24 20.2847 25.6655 20.2958 25.4771C20.3071 25.2856 20.3921 25.109 20.1364 25.224C19.2686 25.6142 18.4552 25.9607 17.5047 26.1074C17.1695 26.1592 16.5553 26.2977 16.2885 25.9879C16.0971 25.7656 16.599 25.8583 16.6658 25.8754C16.8857 25.9318 17.3901 26.0884 17.1204 26.391C16.7279 26.8314 15.8357 26.8555 15.3042 26.8175C14.0811 26.7301 13.0793 25.9919 12.2015 25.1912C11.754 24.783 11.3372 24.3369 10.9525 23.8694C10.8369 23.7291 10.5496 23.3353 10.7275 23.3726C11.3814 23.5097 12.0532 24.1264 12.3304 24.7154C12.3607 24.7797 12.7034 25.6926 12.4031 25.6458C12.2245 25.618 12.0342 25.4728 11.8922 25.3786C11.4981 25.1171 11.1245 24.8263 10.7251 24.5725C10.5552 24.4645 9.89653 23.9311 9.84401 24.3569C9.83054 24.466 9.90672 25.0639 9.79714 25.1255C9.56336 25.257 9.16195 25.0388 8.9699 24.9193C8.91079 24.8825 8.73113 24.7096 8.67697 24.7928C8.50911 25.0505 8.32747 25.2025 8.04189 25.3294C7.8486 25.4153 7.69499 25.4426 7.50524 25.3271C7.38877 25.2562 6.96932 24.8709 7.27558 25.2568C7.66794 25.7511 8.30497 26.079 8.87147 26.3324C9.10133 26.4352 9.24432 26.449 9.47843 26.3676C9.76607 26.2675 10.2339 26.5532 10.5049 26.623C10.9647 26.7415 11.4167 26.7985 11.8805 26.8948C12.7591 27.0774 13.6622 27.1597 14.559 27.1503C14.8024 27.1477 15.003 27.1002 15.2339 27.0331C15.486 26.9598 15.7452 26.997 16.0026 26.9792C16.1568 26.9686 16.3181 26.9279 16.4666 26.8878C16.8253 26.7911 17.1902 26.8128 17.5586 26.8128C17.6869 26.8128 19.1475 26.884 19.1475 26.6863" stroke="#D6D3D3" stroke-width="3" stroke-linecap="round"/>
<path d="M12.665 28.4853C13.3578 28.4853 14.0375 28.5236 14.73 28.5236C15.2175 28.5236 15.6976 28.4853 16.184 28.4853C16.5443 28.4853 16.887 28.4707 17.2356 28.3895C17.3556 28.3615 17.4856 28.3416 17.6082 28.331C17.863 28.3088 18.0871 28.2525 18.3267 28.1787C18.617 28.0894 18.9398 28.0541 19.2389 27.9914C19.4526 27.9466 19.6643 27.8977 19.8776 27.853C20.0355 27.82 20.1742 27.8024 20.3214 27.737C20.3981 27.7029 20.5069 27.6823 20.5694 27.6231C20.5947 27.5992 20.4991 27.6269 20.4662 27.638C20.2009 27.7276 19.9301 27.7856 19.6562 27.8424C18.7848 28.023 17.8921 28.2549 17.0015 28.3054C16.2882 28.3458 15.5661 28.3129 14.8513 28.3129C14.4812 28.3129 14.1101 28.3053 13.7401 28.3139C13.3924 28.322 13.0496 28.3703 12.7001 28.3703C12.3598 28.3703 11.9717 28.4128 11.6368 28.3469C11.3996 28.3003 11.1643 28.2223 10.9406 28.1308C10.672 28.021 10.4073 27.9016 10.1317 27.8104C9.89576 27.7324 9.65548 27.7039 9.427 27.6039" stroke="#D6D3D3" stroke-linecap="round"/>
<path d="M5.87844 24.3023C5.86054 24.3063 5.84357 24.3608 5.83984 24.3787C5.83586 24.3977 5.84686 24.4154 5.84686 24.4344C5.84686 24.5204 5.82299 24.6055 5.80826 24.6901C5.79699 24.7548 5.79554 24.8134 5.79554 24.8794C5.79554 24.8927 5.79215 24.9125 5.78567 24.9241C5.77348 24.9461 5.77407 24.9846 5.77185 25.009" stroke="#D6D3D3" stroke-linecap="round"/>
<path d="M5.51136 23.4733C5.51136 23.4869 5.51859 23.4995 5.51925 23.5128C5.5198 23.5237 5.52715 23.53 5.52715 23.5404C5.52715 23.5601 5.52715 23.5799 5.52715 23.5996C5.52715 23.6484 5.5232 23.6953 5.5232 23.7439C5.5232 23.7602 5.5232 23.7764 5.5232 23.7926C5.5232 23.807 5.51534 23.8125 5.51114 23.8251C5.50252 23.8509 5.49557 23.876 5.49557 23.9036C5.49557 23.9472 5.49951 23.9889 5.49951 24.033C5.49951 24.0509 5.50346 24.0701 5.50346 24.0891C5.50346 24.1103 5.49162 24.1303 5.49162 24.1514C5.49162 24.1732 5.49951 24.1905 5.49951 24.2124C5.49951 24.2385 5.50346 24.2644 5.50346 24.2907C5.50346 24.349 5.49951 24.4093 5.49951 24.4662C5.49951 24.5236 5.48767 24.5768 5.48767 24.634" stroke="#D6D3D3" stroke-linecap="round"/>
<path d="M5.80346 22.9956C5.79388 23.0016 5.79991 23.0407 5.79952 23.0517C5.79875 23.0732 5.79488 23.0934 5.78855 23.1131C5.78297 23.1305 5.7841 23.1519 5.7789 23.1702C5.77346 23.1892 5.77717 23.2151 5.76969 23.2322C5.75453 23.2669 5.73554 23.2972 5.71858 23.3311C5.70851 23.3513 5.68944 23.3707 5.67516 23.3882C5.66696 23.3982 5.64707 23.403 5.64248 23.4149C5.63369 23.4378 5.61282 23.4606 5.59423 23.4772C5.57641 23.4932 5.54977 23.4983 5.53895 23.5226C5.53073 23.5411 5.49158 23.5469 5.49158 23.57C5.49158 23.5818 5.49158 23.5937 5.49158 23.6055C5.49158 23.621 5.47974 23.6318 5.47974 23.647" stroke="#D6D3D3" stroke-linecap="round"/>
<path d="M5.54289 23.5443C5.54289 23.5152 5.56606 23.439 5.51921 23.4338C5.49699 23.4313 5.50913 23.3941 5.51329 23.3825C5.51996 23.3638 5.51921 23.343 5.51921 23.3233" stroke="#D6D3D3" stroke-linecap="round"/>
<path d="M5.62186 23.3509C5.60139 23.3304 5.57705 23.3196 5.54992 23.3105C5.53361 23.3051 5.52267 23.306 5.51505 23.2882C5.51229 23.2817 5.49746 23.2719 5.49158 23.268" stroke="#D6D3D3" stroke-linecap="round"/>
<path d="M23.543 24.9883C23.5487 25.103 23.6524 25.1319 23.7435 25.1641C23.8035 25.1853 23.864 25.1975 23.9236 25.2196C23.9695 25.2366 24.0264 25.2638 24.0547 25.2088C24.0677 25.1835 24.0949 25.1678 24.1013 25.1387C24.1072 25.1125 24.1085 25.0855 24.1155 25.0595C24.132 24.9974 24.1527 24.9342 24.1749 24.8733C24.1913 24.8285 24.2188 24.7739 24.2188 24.725C24.2188 24.7082 24.2235 24.6899 24.2274 24.6736C24.2297 24.6644 24.2344 24.6446 24.2422 24.6385C24.252 24.6307 24.2782 24.6993 24.281 24.7059C24.2883 24.7231 24.2968 24.7403 24.3025 24.758C24.307 24.7719 24.3161 24.7836 24.3164 24.7977C24.3171 24.8298 24.3203 24.862 24.3203 24.8945" stroke="#D6D3D3" stroke-linecap="round"/>
<path d="M24.375 24.3945C24.4137 24.3945 24.4392 24.4083 24.4757 24.4214C24.4825 24.4239 24.5007 24.435 24.5087 24.4336C24.5304 24.4297 24.5381 24.3793 24.5399 24.3624C24.5465 24.3036 24.5514 24.2358 24.5918 24.1892C24.6436 24.1295 24.6644 24.0519 24.7014 23.9846C24.7066 23.9752 24.7135 23.971 24.7157 23.9601C24.7183 23.9474 24.7181 23.9351 24.7196 23.9223C24.7238 23.8863 24.7305 23.8487 24.7305 23.8125" stroke="#D6D3D3" stroke-width="0.5" stroke-linecap="round"/>
<path d="M24.6328 24.4531C24.6414 24.4657 24.6449 24.4816 24.6484 24.4961C24.6594 24.5408 24.6684 24.5861 24.678 24.6311C24.6911 24.6928 24.7031 24.758 24.7344 24.8138C24.739 24.822 24.7435 24.824 24.7489 24.8142C24.7831 24.7522 24.7909 24.6637 24.8012 24.5955C24.8121 24.5234 24.819 24.4505 24.8203 24.3776C24.8204 24.3752 24.8203 24.3455 24.8203 24.3472C24.8203 24.4264 24.8203 24.5055 24.8203 24.5846C24.8203 24.6234 24.8203 24.6622 24.8203 24.701C24.8203 24.7479 24.8203 24.6657 24.8203 24.6649C24.8203 24.5265 24.811 24.3897 24.8047 24.2517C24.802 24.1916 24.8057 24.3724 24.798 24.4321C24.792 24.4781 24.7816 24.5234 24.7743 24.5692C24.773 24.5772 24.7695 24.6327 24.7695 24.5929C24.7695 24.5343 24.7695 24.3585 24.7695 24.4171C24.7695 24.463 24.7693 24.509 24.7697 24.5549C24.77 24.586 24.7627 24.6382 24.7773 24.6684C24.7812 24.6764 24.7852 24.6523 24.7869 24.6437C24.7992 24.581 24.8061 24.5181 24.8079 24.4542C24.8092 24.4115 24.8086 24.3687 24.8086 24.326C24.8086 24.318 24.8093 24.3012 24.8077 24.3203C24.8037 24.3688 24.8005 24.4232 24.8181 24.4696C24.8283 24.4963 24.8242 24.4343 24.8242 24.4284C24.8244 24.4024 24.832 24.3772 24.832 24.3516C24.832 24.2904 24.8506 24.2372 24.8594 24.1777C24.8631 24.1525 24.8684 24.1281 24.873 24.1031C24.8771 24.0811 24.8786 24.0592 24.8789 24.0369C24.8792 24.0164 24.8877 23.9985 24.8906 23.9785C24.8958 23.9433 24.9105 23.9076 24.9138 23.8728C24.9163 23.8475 24.9186 23.8171 24.9258 23.7928C24.9393 23.7467 24.9297 23.7021 24.9297 23.6562C24.9297 23.6386 24.9207 23.623 24.9182 23.6055C24.916 23.5899 24.918 23.5724 24.918 23.5566C24.918 23.5125 24.9336 23.4704 24.9336 23.426C24.9336 23.3903 24.9314 23.3578 24.9434 23.3242C24.9461 23.3166 24.9453 23.3088 24.9453 23.3008C24.9453 23.2908 24.9514 23.2819 24.9531 23.2719C24.9568 23.2507 24.9726 23.2337 24.9763 23.2131C24.9801 23.1923 24.9727 23.1859 24.9727 23.2131C24.9727 23.2352 24.9727 23.2572 24.9727 23.2793C24.9727 23.2976 24.9727 23.3159 24.9727 23.3342C24.9727 23.349 24.9805 23.363 24.9805 23.377C24.9805 23.4459 24.9805 23.5148 24.9805 23.5838C24.9805 23.6199 24.9805 23.6561 24.9805 23.6923C24.9805 23.7233 24.9727 23.7541 24.9727 23.786C24.9727 23.8636 24.9688 23.9391 24.9688 24.0165C24.9688 24.057 24.9805 24.0933 24.9805 24.1328C24.9805 24.163 24.9805 24.1933 24.9805 24.2235C24.9805 24.3157 24.9805 24.4078 24.9805 24.5C24.9805 24.5404 24.9805 24.5807 24.9805 24.6211C24.9805 24.6409 24.9805 24.6607 24.9805 24.6806C24.9805 24.7079 24.9688 24.7319 24.9688 24.7587C24.9688 24.7792 24.9688 24.7998 24.9688 24.8203C24.9688 24.8376 24.9734 24.8616 24.9679 24.878C24.9599 24.9021 24.9498 24.9245 24.9336 24.9444C24.9194 24.9619 24.9016 24.9754 24.8889 24.9941C24.8835 25.0021 24.8787 25.0105 24.8735 25.0187C24.8715 25.0217 24.8614 24.9726 24.8602 24.967C24.8445 24.8922 24.8281 24.8153 24.8281 24.7385C24.8281 24.6888 24.8281 24.8379 24.8281 24.8876C24.8281 24.9346 24.8332 25.0754 24.8357 25.0284C24.8394 24.9585 24.8359 24.8877 24.8359 24.8177C24.8359 24.8055 24.836 24.8078 24.8359 24.8186C24.8356 24.8551 24.8328 24.8915 24.8281 24.9277C24.8258 24.9457 24.8218 24.9637 24.8205 24.9818C24.8196 24.9955 24.8224 24.9932 24.8251 24.9796C24.8405 24.903 24.8398 24.8245 24.8398 24.7467C24.8398 24.7299 24.8397 24.7365 24.8401 24.7493C24.8411 24.7842 24.845 24.8185 24.8507 24.8529C24.8525 24.864 24.8523 24.879 24.8563 24.8898C24.8615 24.9032 24.872 24.8649 24.8754 24.8509C24.9168 24.6827 24.8928 24.5083 24.8837 24.3377C24.8832 24.329 24.8822 24.2985 24.8837 24.3294C24.8867 24.3925 24.8867 24.4555 24.8867 24.5187C24.8867 24.5633 24.8859 24.6082 24.8887 24.6528C24.8895 24.6667 24.8923 24.6917 24.8937 24.6593C24.8992 24.5274 24.8945 24.3946 24.8945 24.2626C24.8945 24.2455 24.8945 24.1943 24.8945 24.2114C24.8945 24.2507 24.89 24.2897 24.8837 24.3286C24.8626 24.4578 24.8203 24.5899 24.8203 24.7218C24.8203 24.799 24.8076 24.5676 24.8095 24.4905C24.8104 24.4531 24.8088 24.4105 24.8194 24.3741C24.8243 24.3574 24.8268 24.4084 24.8273 24.4258C24.829 24.4889 24.8289 24.5523 24.8273 24.6155C24.8257 24.6776 24.8093 24.7431 24.8138 24.8049C24.8143 24.8113 24.8188 24.8375 24.8309 24.8249C24.8659 24.7888 24.8734 24.7137 24.8793 24.668C24.8881 24.6007 24.8902 24.5326 24.8906 24.4648C24.8908 24.4372 24.8965 24.4013 24.8904 24.3739C24.8838 24.344 24.8725 24.4327 24.8663 24.4627C24.8601 24.4927 24.8532 24.5226 24.8485 24.553C24.8466 24.5653 24.8438 24.6028 24.8438 24.5903C24.8438 24.5066 24.8411 24.4225 24.8464 24.339C24.8503 24.2759 24.8672 24.2133 24.8672 24.1502C24.8672 24.1413 24.8704 24.1148 24.8711 24.1237C24.8736 24.1538 24.8679 24.1826 24.8618 24.2118C24.8519 24.2589 24.8752 24.1829 24.8767 24.1727C24.887 24.1055 24.8906 24.0388 24.8906 23.9709C24.8906 23.8437 24.8834 23.7162 24.908 23.5909C24.9138 23.5612 24.9166 23.5208 24.9295 23.4939C24.9375 23.4771 24.9375 23.4201 24.9375 23.4746C24.9375 23.5134 24.9343 23.5508 24.9277 23.589C24.9182 23.644 24.9258 23.7089 24.9258 23.7652C24.9258 23.7813 24.9248 23.7186 24.924 23.7118C24.9218 23.691 24.918 23.6713 24.918 23.6504C24.918 23.6335 24.9297 23.617 24.9297 23.5996C24.9297 23.5956 24.9352 23.5847 24.9405 23.5907C24.9437 23.5942 24.9417 23.6093 24.9412 23.6139C24.9383 23.6433 24.931 23.6703 24.9258 23.6992C24.9183 23.7404 24.9114 23.7813 24.9043 23.8225C24.8992 23.8518 24.8996 23.8818 24.8945 23.9115C24.8903 23.9361 24.8868 23.9604 24.878 23.9839C24.8726 23.9986 24.8672 24.0117 24.8672 24.0276C24.8672 24.0748 24.854 24.1225 24.8596 24.1699C24.8634 24.2023 24.8633 24.2341 24.8633 24.2669C24.8633 24.2782 24.8741 24.2246 24.875 24.2179C24.8774 24.2005 24.8751 24.1662 24.885 24.1506C24.8926 24.1386 24.9141 24.1271 24.9141 24.1113C24.9141 24.0859 24.9258 24.1083 24.9258 24.1228C24.9258 24.134 24.9264 24.1604 24.9316 24.1699C24.9336 24.1734 24.9371 24.1885 24.9366 24.1862C24.9315 24.1633 24.9297 24.1408 24.9297 24.1174C24.9297 24.106 24.9288 24.0942 24.9297 24.0829C24.931 24.0664 24.941 24.1042 24.9412 24.1079C24.9439 24.1688 24.9258 24.2265 24.9258 24.2867C24.9258 24.3034 24.9245 24.3261 24.9217 24.3431C24.9173 24.3694 24.9069 24.2917 24.9015 24.2656C24.8955 24.237 24.8867 24.2106 24.8867 24.1812C24.8867 24.1755 24.8857 24.143 24.8876 24.151C24.8996 24.2025 24.9062 24.2483 24.9062 24.3016C24.9062 24.3931 24.9062 24.4845 24.9062 24.576C24.9062 24.5993 24.911 24.6292 24.9054 24.6523C24.9027 24.6635 24.8947 24.6899 24.883 24.6942C24.8722 24.6983 24.8595 24.6633 24.8572 24.6562C24.8535 24.6449 24.8546 24.6287 24.8576 24.6174C24.868 24.579 24.8673 24.6398 24.8672 24.6493C24.8669 24.6943 24.8555 24.7363 24.8555 24.7812C24.8555 24.8071 24.8435 24.8666 24.8837 24.8711C24.8943 24.8723 24.8959 24.8828 24.9062 24.8828C24.9222 24.8828 24.9156 24.8872 24.9054 24.8963C24.8971 24.9036 24.8671 24.9391 24.8752 24.908C24.8795 24.8914 24.8901 24.8847 24.8976 24.8711C24.9096 24.8492 24.9215 24.8286 24.9266 24.8038C24.9308 24.7841 24.9304 24.7632 24.9297 24.7431C24.9291 24.7275 24.918 24.7131 24.918 24.6962C24.918 24.6426 24.9219 24.5895 24.9219 24.536C24.9219 24.4818 24.9131 24.4194 24.9227 24.3663C24.9257 24.3499 24.9278 24.3274 24.9345 24.3125C24.9454 24.2879 24.9414 24.3413 24.9414 24.3507C24.9414 24.4009 24.9297 24.447 24.9297 24.497C24.9297 24.5436 24.9336 24.5899 24.9336 24.6367C24.9336 24.662 24.9375 24.6871 24.9375 24.7118C24.9375 24.7358 24.9327 24.7637 24.9384 24.7869C24.9426 24.8042 24.9492 24.8217 24.9492 24.8398C24.9492 24.8789 24.9531 24.7614 24.9484 24.7227C24.9449 24.6944 24.9414 24.669 24.9414 24.6406C24.9414 24.5618 24.9403 24.4904 24.9206 24.4132C24.9124 24.3811 24.9097 24.346 24.9045 24.3131C24.9013 24.2927 24.9045 24.2717 24.8984 24.2517C24.8889 24.2203 24.8945 24.1818 24.8945 24.1493C24.8945 24.1305 24.8945 24.1117 24.8945 24.0929C24.8945 24.0749 24.8878 24.0605 24.8837 24.043C24.8793 24.0245 24.8822 24.0033 24.8672 23.9883C24.8475 23.9686 24.8448 23.9577 24.8164 23.9648" stroke="#D6D3D3" stroke-width="0.05" stroke-linecap="round"/>
<path d="M24.9297 24.2422C24.9297 24.264 24.9414 24.2816 24.9414 24.3027C24.9414 24.3229 24.9414 24.3431 24.9414 24.3633" stroke="#D6D3D3" stroke-width="0.05" stroke-linecap="round"/>
</svg>
