<svg width="16" height="18" viewBox="0 0 16 18" fill="none" xmlns="http://www.w3.org/2000/svg">
<path d="M13.0909 8.06667V4.6C13.0909 2.06667 10.8364 0 8 0C5.16364 0 2.90909 2.06667 2.90909 4.6V8.06667C1.23636 8.4 0 9.73333 0 11.3333V14.6667C0 16.5333 1.6 18 3.63636 18H12.3636C14.4 18 16 16.5333 16 14.6667V11.3333C16 9.73333 14.7636 8.4 13.0909 8.06667ZM8.72727 14.5333V15.3333C8.72727 15.7333 8.43636 16 8 16C7.56364 16 7.27273 15.7333 7.27273 15.3333V14.5333C6.4 14.2667 5.81818 13.5333 5.81818 12.6667C5.81818 11.5333 6.76364 10.6667 8 10.6667C9.23636 10.6667 10.1818 11.5333 10.1818 12.6667C10.1818 13.5333 9.6 14.2667 8.72727 14.5333ZM11.6364 8H4.36364V4.6C4.36364 2.8 5.96364 1.33333 8 1.33333C10.0364 1.33333 11.6364 2.8 11.6364 4.6V8Z" fill="#A4A0A0"/>
</svg>
