<svg width="20" height="20" viewBox="0 0 20 20" fill="none" xmlns="http://www.w3.org/2000/svg">
<path d="M6.5 8C7.32843 8 8 7.32843 8 6.5C8 5.67157 7.32843 5 6.5 5C5.67157 5 5 5.67157 5 6.5C5 7.32843 5.67157 8 6.5 8Z" fill="#A4A0A0"/>
<path fill-rule="evenodd" clip-rule="evenodd" d="M9.00549 2.28759e-07H10.9945C12.3805 -9.77124e-06 13.4828 -9.68575e-06 14.3716 0.0738003C15.2819 0.14939 16.0575 0.30755 16.7658 0.67552C17.8617 1.24477 18.7552 2.1383 19.3245 3.23415C19.6925 3.94253 19.8506 4.71811 19.9262 5.62839C20 6.5172 20 7.61946 20 9.0054V10.9945C20 11.6854 20 12.306 19.9909 12.8646C20.0049 12.9677 20.0028 13.0726 19.9846 13.175C19.9741 13.6124 19.9563 14.0097 19.9262 14.3716C19.8506 15.2819 19.6925 16.0575 19.3245 16.7658C18.7552 17.8617 17.8617 18.7552 16.7658 19.3245C16.0575 19.6925 15.2819 19.8506 14.3716 19.9262C13.4828 20 12.3805 20 10.9946 20H9.00549C7.61954 20 6.51719 20 5.62838 19.9262C4.7181 19.8506 3.94252 19.6925 3.23415 19.3245C2.43876 18.9113 1.74996 18.3273 1.21437 17.6191C1.20423 17.6062 1.19444 17.5932 1.185 17.5799C0.994549 17.3238 0.824009 17.0517 0.675519 16.7658C0.30755 16.0575 0.14939 15.2819 0.0738002 14.3716C-9.68574e-06 13.4828 -9.77123e-06 12.3805 2.28759e-07 10.9945V9.0055C-9.77123e-06 7.61949 -9.68574e-06 6.51721 0.0738002 5.62839C0.14939 4.71811 0.30755 3.94253 0.675519 3.23415C1.24477 2.1383 2.1383 1.24477 3.23415 0.67552C3.94252 0.30755 4.7181 0.14939 5.62838 0.0738003C6.5172 -9.68575e-06 7.61948 -9.77124e-06 9.00549 2.28759e-07ZM18 9.05V10.5118L16.613 9.065C15.8228 8.2407 14.504 8.2442 13.7182 9.0727L9.05119 13.9929L7.51536 12.1359C6.69325 11.1419 5.15906 11.1746 4.38007 12.2028L2.19042 15.0928C2.13682 14.8463 2.09606 14.5568 2.06694 14.2061C2.0008 13.4097 2 12.3905 2 10.95V9.05C2 7.60949 2.0008 6.59025 2.06694 5.79391C2.13208 5.00955 2.25538 4.53142 2.45035 4.1561C2.82985 3.42553 3.42552 2.82985 4.15609 2.45035C4.53141 2.25538 5.00954 2.13208 5.7939 2.06694C6.59024 2.0008 7.60948 2 9.04999 2H10.95C12.3905 2 13.4097 2.0008 14.2061 2.06694C14.9905 2.13208 15.4686 2.25538 15.8439 2.45035C16.5745 2.82985 17.1702 3.42553 17.5497 4.1561C17.7446 4.53142 17.8679 5.00955 17.9331 5.79391C17.9992 6.59025 18 7.60949 18 9.05ZM4.15609 17.5497C3.84197 17.3865 3.55278 17.1833 3.295 16.9467L5.97418 13.4106L7.51004 15.2676C8.27489 16.1924 9.67639 16.24 10.5023 15.3693L15.1693 10.449L17.9782 13.3792C17.9683 13.6812 17.9539 13.9547 17.9331 14.2061C17.8679 14.9905 17.7446 15.4686 17.5497 15.8439C17.1702 16.5745 16.5745 17.1702 15.8439 17.5497C15.4686 17.7446 14.9905 17.8679 14.2061 17.9331C13.4097 17.9992 12.3905 18 10.95 18H9.04999C7.60948 18 6.59024 17.9992 5.7939 17.9331C5.00954 17.8679 4.53141 17.7446 4.15609 17.5497Z" fill="#A4A0A0"/>
</svg>
