<svg width="30" height="25" viewBox="0 0 30 25" fill="none" xmlns="http://www.w3.org/2000/svg">
<path fill-rule="evenodd" clip-rule="evenodd" d="M19.8023 0H10.1977L7.4477 4.21875H1.25L0 5.46875V23.75L1.25 25H28.75L30 23.75V5.46875L28.75 4.21875H22.5523L19.8023 0ZM8.8023 6.71875L11.5523 2.5H18.4477L21.1977 6.71875H27.5V22.5H2.5V6.71875H8.8023ZM11.25 13.75C11.25 11.679 12.929 10 15 10C17.071 10 18.75 11.679 18.75 13.75C18.75 15.821 17.071 17.5 15 17.5C12.929 17.5 11.25 15.821 11.25 13.75ZM15 7.5C11.5482 7.5 8.75 10.2982 8.75 13.75C8.75 17.2018 11.5482 20 15 20C18.4518 20 21.25 17.2018 21.25 13.75C21.25 10.2982 18.4518 7.5 15 7.5Z" fill="#A4A0A0"/>
</svg>
